<svg width="362" height="286" viewBox="0 0 362 286" fill="none" xmlns="http://www.w3.org/2000/svg">
<path d="M330.473 131.05C333.62 145.251 335.718 148.407 337.817 149.458C341.664 149.108 350.302 148.932 354.079 151.036C358.8 153.666 357.455 154.956 352.505 158.926C347.259 163.133 339.915 168.656 328.899 168.919C328.549 171.198 327.85 176.282 327.85 178.386C331.871 179.964 341.069 184.592 345.685 190.483C351.456 197.846 351.98 198.898 350.931 201.528C349.882 204.157 336.243 203.798 331.522 201.168C331.522 208.742 330.997 213.449 331.522 215.202C333.97 219.41 340.23 228.456 345.685 230.981C352.505 234.137 350.407 238.344 342.538 236.241C334.669 234.137 310.014 221.514 294.276 228.877C283.785 225.722 273.124 222.593 264.9 218.884C256.757 215.212 250.211 202.58 244.441 202.58C238.671 202.58 222.933 217.306 202.999 225.722C183.065 234.137 145.478 240.794 128.591 237.749C116.233 235.521 102.527 228.877 87.0661 218.884C79.3333 213.886 73.427 207.664 71.8532 206.261C66.082 192.061 72.3786 172.324 87.0661 149.182C86.2261 130.668 88.4647 106.681 89.689 97.9151C92.8593 95.2 98.2898 91.5795 105.426 88.3064C102.804 81.5162 94.4103 66.2527 81.8203 59.5205C66.0828 51.1053 46.9646 65.8319 43.2925 80.5586C40.3548 92.34 37.9302 105.103 38.2799 110.012C41.2528 111.765 52.741 113.689 54 120C55.259 126.311 57.1478 133.934 54 137C56.6226 133.759 47.1972 128.736 40.9028 121.583C33.0349 112.642 27.6528 113.66 21.4941 113.168C18.652 111.765 28.8383 110.012 32.5103 110.012C33.3841 98.4409 38.4813 74.8448 40.9028 67.4097C44.5 56.3648 58.2889 47.931 69.8297 46.8791C81.3705 45.8271 89.1661 46.3717 97.5586 56.3648C105.951 66.3579 112.771 74.8816 117.493 83.7685C127.449 80.7984 139.265 79.107 152.114 80.5586C179.09 83.606 208.542 111.759 229.509 131.05C242.355 121.408 271.195 101.281 283.785 97.9151C299.522 93.7074 287.457 103.701 281.686 105.804C285.184 105.103 292.598 106.435 294.276 117.375C297.291 116.502 301.082 119.817 294.276 123.161C292.449 124.058 289.822 125.882 286.408 127.456C289.709 127.869 290.394 130.738 287.457 133.552C290.183 132.91 291.605 133.079 292.079 134.973C292.495 136.639 290.08 137.887 286.408 139.465C285.871 139.696 284.955 139.96 283.785 140.247C284.981 142.747 286.385 148.444 282.431 151.232C283.391 151.284 283.785 151.702 283.785 152.614C283.785 154.718 279.333 160.503 269.231 158.926C276.409 162.48 282.179 163.907 287.457 161.555C291.828 153.666 303.299 135.994 314.21 128.42C327.85 118.953 340.44 113.694 345.685 114.22C350.931 114.746 347.259 119.479 342.538 123.161C338.761 126.106 332.921 129.648 330.473 131.05Z" fill="#ED716D"/>
<circle cx="145.472" cy="109.153" r="10.1053" fill="#221F1C"/>
<circle cx="144.028" cy="104.822" r="2.88722" fill="white"/>
<circle cx="149.811" cy="106.266" r="1.44361" fill="white"/>
<path d="M281.022 215.086C287.505 219.144 292.503 226.247 294.191 229.291C297.399 228.276 305.841 226.551 313.946 227.769C324.076 229.291 335.726 234.364 341.298 236.394C346.87 238.423 348.389 237.409 349.402 235.379C350.415 233.35 346.87 231.828 341.298 227.769C336.84 224.522 333.025 217.96 331.674 215.086C320.362 205.784 297.028 186.573 294.191 184.138C290.646 181.094 278.489 181.094 269.372 184.138C260.254 187.182 253.67 194.792 253.67 197.329C253.67 199.865 260.761 205.953 262.281 206.461C263.8 206.968 272.917 210.012 281.022 215.086Z" fill="#FBCC51"/>
<path d="M328.128 198.343L299.257 177.542C306.517 177.542 322.455 177.745 328.128 178.557C335.22 179.572 343.324 188.197 346.87 192.255C350.415 196.314 352.948 198.343 350.415 201.895C348.389 204.736 337.077 203.078 331.674 201.895L328.128 198.343Z" fill="#FBCC51"/>
<path d="M333.7 150.146C326.406 150.958 307.699 161.984 299.257 167.396C303.815 167.903 314.959 168.918 323.063 168.918C333.193 168.918 337.752 167.396 343.83 164.859C348.693 162.83 354.636 156.911 357 154.205C356.831 153.528 355.987 151.77 353.961 150.146C351.428 148.117 342.817 149.131 333.7 150.146Z" fill="#FBCC51"/>
<path d="M313.946 139.492C311.92 140.71 296.893 153.867 289.633 160.293V156.741L300.776 142.028C303.984 138.646 311.514 130.766 315.972 126.301C321.543 120.72 338.259 114.632 343.83 114.125C349.402 113.618 349.402 116.662 346.87 119.198C344.337 121.735 331.674 131.375 328.128 131.882C324.583 132.389 316.478 137.97 313.946 139.492Z" fill="#FBCC51"/>
<path d="M284.061 140.506L263.8 147.609C266.333 151.161 269.372 152.683 271.904 153.19C273.93 153.596 279.84 152.344 282.541 151.668L285.074 146.595C285.884 144.971 284.736 141.859 284.061 140.506Z" fill="#FBCC51"/>
<path d="M276.97 136.955C270.486 139.39 261.774 141.352 258.228 142.028C256.709 139.492 267.346 135.433 271.904 133.404C276.463 131.374 284.061 127.316 287.607 127.316C290.443 127.316 289.464 130.36 288.62 131.882C287.438 132.558 283.453 134.52 276.97 136.955Z" fill="#FBCC51"/>
<path d="M253.67 135.94C245.971 138.782 243.033 137.124 242.526 135.94C242.188 135.095 241.716 132.49 242.526 128.838C243.337 125.185 268.528 111.757 281.022 105.5C282.71 105.5 286.796 106.007 289.633 108.037C292.469 110.066 293.854 114.632 294.191 116.661C283.892 121.904 261.369 133.099 253.67 135.94Z" fill="#FBCC51"/>
<path d="M201.498 171.962C196.23 174.397 186.808 174.329 182.756 173.991C173.639 177.035 179.717 184.138 183.769 184.138C187.822 184.138 198.458 187.689 203.524 190.733C208.589 193.777 209.602 198.851 211.122 199.865C212.641 200.88 216.187 197.329 218.719 193.777C221.252 190.226 223.278 183.123 223.785 176.02C224.291 168.917 222.265 165.873 220.745 164.859C219.226 163.844 208.082 168.917 201.498 171.962Z" fill="#FBCC51"/>
<path d="M88.9427 99.5C87.7295 104.346 87.0892 134.497 86.9207 148.967C84.5616 152.5 78.428 162.494 72.7662 174.205C67.1044 185.915 69.059 199.948 70.7441 205.5C72.9347 205.163 78.1247 204.289 81.36 203.481C85.4041 202.471 111.185 193.386 125.34 185.31C139.494 177.233 140 170.671 140 161.081C140 151.49 135.45 142.91 123.823 127.262C114.522 114.744 100.064 103.538 93.9979 99.5H88.9427Z" fill="#900D0D"/>
<path d="M90.9985 115.5C89.7985 111.1 90.4985 103 90.9985 99.5L95.5 101.5C94.8333 102.667 92.9997 107.1 90.9985 115.5Z" fill="white"/>
<path d="M95.6401 119.141C95.6003 114.581 98.3401 106.926 99.715 103.669L103.559 106.749C102.617 107.708 99.7146 111.528 95.6401 119.141Z" fill="white"/>
<path d="M101.529 123.425C102.219 118.917 106.149 111.799 108.027 108.804L111.329 112.46C110.245 113.255 106.769 116.561 101.529 123.425Z" fill="white"/>
<path d="M107.599 130.475C109.023 126.143 114.073 119.771 116.42 117.127L119.073 121.277C117.873 121.883 113.899 124.57 107.599 130.475Z" fill="white"/>
<path d="M114.73 136.822C115.994 132.98 120.472 127.33 122.553 124.985L124.905 128.666C123.842 129.203 120.318 131.586 114.73 136.822Z" fill="white"/>
<path d="M121.492 145.661C122.755 141.819 127.233 136.169 129.314 133.824L131.667 137.504C130.603 138.042 127.079 140.425 121.492 145.661Z" fill="white"/>
<path d="M126.492 153.661C127.755 149.819 132.233 144.169 134.314 141.824L136.667 145.504C135.603 146.042 132.079 148.425 126.492 153.661Z" fill="white"/>
<path d="M76.0239 187.635C73.772 192.346 72.9032 201.613 72.7502 205.658L78.23 204.326C77.7178 202.876 76.5594 197.507 76.0239 187.635Z" fill="white"/>
<path d="M83.859 187.315C81.9879 191.474 81.417 199.584 81.3654 203.119L86.1236 201.845C85.6469 200.589 84.5266 195.924 83.859 187.315Z" fill="white"/>
<path d="M90.9737 185.762C89.7923 190.167 90.5266 198.264 91.0415 201.762L95.5344 199.743C94.8628 198.579 93.0104 194.154 90.9737 185.762Z" fill="white"/>
<path d="M99.3648 181.749C98.9263 186.289 100.986 194.154 102.071 197.519L106.169 194.786C105.315 193.749 102.758 189.69 99.3648 181.749Z" fill="white"/>
<path d="M108.449 178.807C108.06 182.832 109.887 189.807 110.849 192.791L114.483 190.368C113.725 189.448 111.458 185.848 108.449 178.807Z" fill="white"/>
<path d="M118.195 173.435C117.806 177.46 119.633 184.435 120.595 187.419L124.229 184.996C123.471 184.076 121.204 180.476 118.195 173.435Z" fill="white"/>
<path d="M125.992 168.122C125.603 172.147 127.43 179.122 128.392 182.106L132.026 179.683C131.268 178.763 129.001 175.163 125.992 168.122Z" fill="white"/>
<path d="M256.5 194C265.5 196.833 285 204.2 291 211C297 217.8 301.5 224.5 303 227M261.5 188.5C272.167 191 294.8 197.8 300 205C305.2 212.2 315.167 223.333 319.5 228M271.5 183.5C280 186 299.1 193.2 307.5 202C318 213 331 230.5 336 233M309 178.5C315.333 181.167 330.2 189.6 339 202M321.5 178.5C327.833 182.333 341.6 192.4 346 202M222.5 170.5C219.333 172.5 210.5 176.8 200.5 178M201 184C204.333 184.167 212.6 185.9 219 191.5M223.5 181H207M351 150.5C341.667 152.333 319 158.2 303 167C317 167 342.167 161.333 353 158.5M291 110C278.667 116.5 251.8 130.7 243 135.5" stroke="#FCF6E7" stroke-width="2" stroke-linecap="round"/>
<path d="M89.689 97.9151C114.344 108.96 152.114 153.666 137.951 174.178C126.62 190.588 89.1645 202.404 71.8532 206.261M89.689 97.9151C92.8593 95.2 98.2898 91.5795 105.427 88.3064M89.689 97.9151C88.4647 106.681 86.2261 130.668 87.0661 149.182C72.3786 172.324 66.082 192.061 71.8532 206.261M287.457 161.555C296.899 157.348 316.309 133.154 330.473 131.05M287.457 161.555C291.828 153.666 303.299 135.994 314.21 128.42C327.85 118.953 340.44 113.694 345.685 114.22C350.931 114.746 347.259 119.479 342.538 123.161C338.761 126.106 332.921 129.648 330.473 131.05M287.457 161.555C282.179 163.907 276.409 162.48 269.231 158.926M330.473 131.05C333.62 145.251 335.718 148.406 337.817 149.458M337.817 149.458C321.555 152.088 302.145 165.237 299.522 167.867C309.174 169.55 323.128 169.269 328.899 168.919M337.817 149.458C341.664 149.108 350.302 148.932 354.079 151.036C358.8 153.666 357.455 154.956 352.505 158.926C347.259 163.133 339.915 168.656 328.899 168.919M328.899 168.919C328.549 171.198 327.85 176.282 327.85 178.386M327.85 178.386C314.84 178.386 303.019 177.676 297.948 176.975C307.566 182.935 327.745 196.119 331.522 201.168M327.85 178.386C331.871 179.964 341.069 184.592 345.685 190.483C351.456 197.846 351.98 198.898 350.931 201.528C349.882 204.157 336.243 203.798 331.522 201.168M331.522 201.168C331.522 208.742 330.997 213.449 331.522 215.202M331.522 215.202C321.38 204.683 298.008 185.749 292.553 183.645C285.733 181.016 276.051 179.964 269.231 183.645C262.412 187.327 252.834 193.112 254.408 197.846C255.982 202.58 260.703 206.228 270.67 208.858C280.637 211.488 292.178 224.144 294.276 228.877M331.522 215.202C333.97 219.41 340.23 228.456 345.685 230.981C352.505 234.137 350.407 238.344 342.538 236.241C334.669 234.137 310.014 221.514 294.276 228.877M294.276 228.877C283.785 225.722 273.124 222.593 264.9 218.884C256.757 215.212 250.211 202.58 244.441 202.58C238.671 202.58 222.933 217.306 202.999 225.722C183.065 234.137 145.478 240.794 128.591 237.749C116.233 235.521 102.527 228.877 87.0661 218.884C79.3333 213.886 73.427 207.664 71.8532 206.261M229.509 131.05C208.542 111.759 179.09 83.606 152.114 80.5586C139.265 79.107 127.449 80.7984 117.493 83.7685M229.509 131.05C237.491 138.394 244.244 144.454 249.162 147.355C257.028 151.994 263.568 156.121 269.231 158.926M229.509 131.05C242.355 121.408 271.195 101.281 283.785 97.9151C299.522 93.7074 287.457 103.701 281.686 105.804M281.686 105.804C275.916 107.908 242.794 126.457 241.848 131.658C240.9 136.867 247.064 139.465 254.408 136.31C261.752 133.154 292.199 117.977 294.276 117.375M281.686 105.804C285.184 105.103 292.598 106.435 294.276 117.375M294.276 117.375C297.291 116.502 301.082 119.817 294.276 123.161C292.449 124.058 289.823 125.882 286.408 127.456M269.231 158.926C279.333 160.503 283.785 154.718 283.785 152.614C283.785 151.702 283.391 151.284 282.431 151.232M286.408 127.456C275.373 132.542 258.357 138.633 257.556 141.043C256.506 144.199 271.719 139.465 279.588 136.31C284.223 134.451 285.444 134.026 287.457 133.552M286.408 127.456C289.709 127.869 290.394 130.738 287.457 133.552M287.457 133.552C290.183 132.91 291.605 133.079 292.079 134.973C292.495 136.639 290.08 137.887 286.408 139.465C285.872 139.696 284.955 139.96 283.785 140.247M283.785 140.247C277.388 143.025 261.554 147.09 262.698 148.234C265.068 150.603 269.096 154.192 275.391 152.614C278.958 151.72 281.178 151.164 282.431 151.232M283.785 140.247C284.981 142.747 286.385 148.444 282.431 151.232M181.491 174.178C186.562 174.178 197.96 174.904 208.245 169.445C217.163 164.711 220.835 162.081 222.933 167.867C225.519 174.995 222.933 188.905 217.687 195.742C212.441 202.58 210.343 198.372 208.245 195.742C206.146 193.112 198.278 185.223 183.065 183.645M105.427 88.3064C102.804 81.5162 94.4103 66.2527 81.8203 59.5205C66.0828 51.1053 46.9646 65.8319 43.2925 80.5586C40.3548 92.34 37.9302 105.103 38.2799 110.012C41.2528 111.765 51 113.168 55 121.583C57.7629 127.395 57.1478 132.934 54 136C56.6226 132.759 47.1972 128.736 40.9028 121.583C33.0349 112.642 27.6528 113.66 21.4941 113.168C18.652 111.765 28.8383 110.012 32.5103 110.012C33.3841 98.4409 36.007 78.9819 38.2799 71.5C43.2925 55 58.2889 47.931 69.8297 46.8791C81.3705 45.8271 89.1661 46.3717 97.5586 56.3648C105.951 66.3579 112.771 74.8816 117.493 83.7685M105.427 88.3064C109.036 86.6509 113.082 85.0842 117.493 83.7685" stroke="black" stroke-width="3"/>
<circle cx="29.6578" cy="137.842" r="24.1578" fill="#FAE19E" stroke="black" stroke-width="3"/>
<path d="M28.2535 147.198C26.4291 147.198 24.4628 146.969 22.3546 146.511V142.332C22.9019 142.541 23.4999 142.742 24.1486 142.933C24.8176 143.104 25.4967 143.247 26.1859 143.362C26.6116 143.438 27.0271 143.496 27.4326 143.534C27.838 143.572 28.2231 143.591 28.588 143.591C29.3989 143.591 30.0374 143.486 30.5037 143.276C30.9902 143.066 31.2334 142.751 31.2334 142.332C31.2334 141.95 31.0003 141.645 30.5341 141.416C30.0881 141.187 29.3786 140.938 28.4056 140.671C27.1893 140.347 26.1656 140.013 25.3345 139.669C24.5237 139.307 23.8142 138.753 23.206 138.009C22.6181 137.246 22.3242 136.244 22.3242 135.004C22.3242 133.172 23.0033 131.798 24.3615 130.882C25.7399 129.966 27.5542 129.508 29.8043 129.508C31.3449 129.508 32.997 129.727 34.7606 130.166V134.403C34.3349 134.212 33.8788 134.04 33.3923 133.887C32.9058 133.716 32.399 133.573 31.872 133.458C31.4057 133.344 30.9496 133.258 30.5037 133.2C30.0577 133.143 29.632 133.115 29.2266 133.115C28.436 133.115 27.8076 133.239 27.3413 133.487C26.8954 133.735 26.6724 134.116 26.6724 134.632C26.6724 135.147 26.9359 135.548 27.463 135.834C28.0103 136.101 28.8617 136.387 30.0172 136.693C31.1929 136.998 32.1659 137.313 32.9362 137.637C33.7065 137.962 34.3653 138.448 34.9127 139.097C35.4802 139.746 35.764 140.595 35.764 141.645C35.764 143.553 35.0951 144.955 33.7572 145.852C32.4193 146.749 30.5847 147.198 28.2535 147.198ZM26.7636 150.06C26.7636 149.278 26.7636 148.495 26.7636 147.713C26.7636 146.854 26.7636 146.005 26.7636 145.165H30.9598C30.9598 145.738 30.9598 146.167 30.9598 146.453C30.9598 146.74 30.9598 147.159 30.9598 147.713C30.9598 148.495 30.9598 149.278 30.9598 150.06H26.7636ZM26.7636 131.741C26.7636 131.168 26.7636 130.739 26.7636 130.452C26.7636 130.166 26.7636 129.746 26.7636 129.193C26.7636 128.411 26.7636 127.628 26.7636 126.846H30.9598C30.9598 127.628 30.9598 128.411 30.9598 129.193C30.9598 130.033 30.9598 130.882 30.9598 131.741H26.7636Z" fill="#221F1C"/>
</svg>
