<svg width="362" height="285" viewBox="0 0 362 285" fill="none" xmlns="http://www.w3.org/2000/svg">
<g clip-path="url(#clip0_190_5271)">
<path d="M128.293 247.022C135.595 251.955 164.942 253.109 178.703 253.07C178.389 258.099 176.658 268.631 172.246 270.526C166.731 272.894 158.926 272.484 152.28 279.518C160.051 274.979 174.211 276.684 178.963 273.39C182.764 270.754 188.447 258.727 190.813 253.043C194.113 253.019 203.007 251.454 212.187 245.38C223.662 237.787 224.201 223.343 223.403 217.467C223.138 215.519 222.447 214.092 221.44 212.961C223.978 209.073 228.626 200.405 226.924 196.83C224.796 192.361 213.454 186.153 212.253 180.921C211.051 175.689 209.126 174.479 213.069 172.472C207.834 173.674 207.106 177.697 207.586 179.79C208.067 181.883 207.29 186.467 212.202 190.296C217.115 194.126 219.236 195.291 219.077 198.632C218.949 201.305 214.564 205.911 212.388 207.88C206.838 205.299 205.997 201.636 203.346 197.288C200.695 192.939 189.715 188.301 180.906 185.918C178.109 185.161 170.797 181.174 161.934 175.954C161.759 171.772 162.458 161.734 166.652 155.042C171.894 146.678 169.508 121.889 164.564 114.762C162.822 112.252 161 110.5 158.5 111C156.602 111.38 157.058 114.076 155 114.762C153.5 115.262 152.113 112.4 149.5 113C146.887 113.6 149.113 117 146 117.5C142.606 118.045 143 115 140 116C137 117 139.076 119.789 136.308 121.252C133 123 132.616 119.899 130 120.5C127.384 121.101 125.151 132.627 125.667 139.669C126.079 145.302 128.323 152.834 129.393 155.895C126.361 153.966 123.572 152.177 121.16 150.618C120.721 142.857 120.045 135.501 118.635 133.022C115.863 128.15 101.682 107.172 99.3989 97.2316C104.85 91.3898 120.161 79.2441 137.803 77.3956C159.855 75.0849 176.993 77.7585 194.258 73.7931C211.524 69.8278 229.808 53.5109 231.435 36.6133C210.783 47.4153 197.583 49.8962 188.971 50.7723C180.36 51.6485 151.188 51.7387 144.79 52.6575C166.576 37.1886 179.746 22.5972 210.693 18.2438C179.839 11.0092 156.38 11.9905 137.219 19.6959C121.891 25.8602 103.124 40.0113 95.656 46.3163C95.4876 42.4507 95.3466 38.9122 95.2382 35.9471C94.7384 39.3667 92.828 47.5166 89.1851 52.7596C85.5423 58.0027 79.3562 76.3145 76.7185 84.815C75.1347 85.9132 70.2984 90.9162 63.6235 102.143C56.9486 113.37 54.3517 134.519 53.8877 143.691C48.3277 144.708 41.1109 150.124 42.205 152.779C43.4491 155.798 49.5148 165.42 56.6885 169.832C56.6016 172.936 57.8539 176.357 58.4909 177.68C56.435 175.986 55.1504 174.899 54.9371 174.64C53.41 172.788 50.0889 171.547 49 174C47.9111 176.453 49.4767 178.114 47 179C44.9767 179.724 44.5 175.5 41.0935 176.718C38.833 177.527 40.5 181 38 182C35.5 183 35 178 31.5 179.5C29.5263 180.346 30.7848 184.594 28.0486 184.671C25.3124 184.749 25 181 21.9755 182.211C18.8234 183.472 20.6813 188.567 19.1117 188.927C17.5421 189.288 9.18588 176.886 12.3451 195.438C15.5044 213.991 44.2154 231.081 51.6954 234.871C59.1754 238.661 73.7399 239.723 85.2928 234.866C94.5352 230.981 103.765 231.358 107.225 232.032C111.205 234.974 120.991 242.09 128.293 247.022Z" fill="#ED716D"/>
<path d="M280.5 188C316.122 188 345 159.122 345 123.5C345 87.8776 316.122 59 280.5 59C244.878 59 216 87.8776 216 123.5C216 159.122 244.878 188 280.5 188Z" fill="#FAE19E"/>
<path d="M308.688 109.65C308.392 105.168 306.836 97.0762 306.095 93.5905C309.43 92.7191 316.618 90.8269 318.693 90.2293C320.768 89.6318 328.203 85.9967 331.661 84.2539C333.019 85.8723 336.626 91.1257 340.183 99.1925C343.74 107.259 344.876 118.986 345 123.841H309.43C309.306 120.978 308.985 114.131 308.688 109.65Z" fill="#FBCC51"/>
<path d="M252.312 137.106C252.608 141.51 254.164 149.462 254.905 152.888C251.57 153.744 244.382 155.604 242.307 156.191C240.232 156.778 232.797 160.351 229.339 162.063C227.981 160.473 224.374 155.31 220.817 147.382C217.26 139.455 216.124 127.93 216 123.159H251.57C251.694 125.973 252.015 132.701 252.312 137.106Z" fill="#FCF6E7"/>
<path d="M278.795 59C254.106 59 235.291 75.7876 228.97 84.1814C237.894 90.1064 249.793 93.0689 254.626 93.8095C254.874 92.2048 255.975 86.4016 260.204 76.7751C265.409 64.925 271.359 61.2219 278.795 59Z" fill="#FBCC51"/>
<path d="M282.205 59C306.894 59 325.709 75.7876 332.03 84.1814C323.106 90.1064 311.207 93.0689 306.374 93.8095C306.126 92.2048 305.025 86.4016 300.796 76.7751C295.591 64.925 289.641 61.2219 282.205 59Z" fill="#FCF6E7"/>
<path d="M282.205 188C306.894 188 325.709 171.212 332.03 162.819C323.106 156.894 311.207 153.931 306.374 153.19C306.126 154.795 305.025 160.598 300.796 170.225C295.591 182.075 289.641 185.778 282.205 188Z" fill="#ED716D"/>
<path d="M278.795 188C254.106 188 235.291 171.212 228.97 162.819C237.894 156.894 249.793 153.931 254.626 153.19C254.874 154.795 255.975 160.598 260.204 170.225C265.409 182.075 271.359 185.778 278.795 188Z" fill="#FBCC51"/>
<path d="M309.447 123.159H250.897C250.308 128.264 252.861 145.307 254.211 153.19C258.139 152.315 268.941 150.563 280.724 150.563C292.508 150.563 302.573 152.315 306.132 153.19C306.623 150.688 307.826 144.406 308.71 139.301C309.594 134.195 309.569 126.412 309.447 123.159Z" fill="#FBCC51"/>
<path d="M250.873 123.159H309.422C310.011 118.169 307.458 101.514 306.108 93.8095C302.18 94.6655 291.378 96.3775 279.595 96.3775C267.811 96.3775 257.746 94.6655 254.187 93.8095C253.696 96.2553 252.493 102.394 251.609 107.383C250.725 112.373 250.75 119.979 250.873 123.159Z" fill="#ED716D"/>
<path d="M345 123.5C345 159.122 316.122 188 280.5 188C244.878 188 216 159.122 216 123.5M345 123.5C345 87.8776 316.122 59 280.5 59C244.878 59 216 87.8776 216 123.5M345 123.5H216" stroke="#221F1C" stroke-width="3"/>
<ellipse cx="280.499" cy="123.5" rx="29.0079" ry="64.5" stroke="#221F1C" stroke-width="3"/>
<path d="M331.349 84.9365C319.548 91.5836 301.158 95.8572 280.5 95.8572C259.841 95.8572 241.452 91.5836 229.651 84.9365" stroke="#221F1C" stroke-width="3"/>
<path d="M229.651 161.381C241.452 154.734 259.842 150.46 280.5 150.46C301.159 150.46 319.548 154.734 331.349 161.381" stroke="#221F1C" stroke-width="3"/>
<path d="M125.5 135C125.5 139.4 127.5 149.5 128.5 154L129.5 156L161.5 175.5C161.833 172.333 162.8 165.1 164 161.5C165.2 157.9 167.167 154.333 168 153C168.333 150.833 169 146 169 144C169 141.5 169.5 137 169 131C168.5 125 165.5 116 164.5 114C163.5 112 160 110.5 158.5 111C157 111.5 155.5 114.5 155 115C154.5 115.5 151.5 113 149.5 113C147.5 113 148 114.5 148 115.5C148 116.5 147 117 145.5 117.5C144 118 142.5 116 141.5 115.5C140.5 115 138.5 116 138.5 117.5C138.5 119 136.5 121.5 135.5 122C134.5 122.5 131.5 120 129.5 120.5C127.5 121 125.5 129.5 125.5 135Z" fill="#FBCC51"/>
<path d="M120 138C120.4 140.4 121.5 160.333 122 170C117.5 167.167 107.6 160.9 104 158.5C99.5 155.5 91.5 144.5 89.5 142C87.5 139.5 83 124.5 82.5 122C82.1 120 78.3333 96.8333 76.5 85.5C79.1667 77.6667 84.8 61.3 86 58.5C87.5 55 91 49.5 92 48C92.8 46.8 94.3333 40.5 95 37.5C95.5 47.6667 96.6 69.5 97 75.5C97.5 83 99.5 97 100 100C100.5 103 110.5 120 113.5 124.5C116.5 129 119.5 135 120 138Z" fill="#FBCC51"/>
<path d="M63.5 166.5C64.3 170.5 65.5 173.167 66 174C64.3333 173.5 60.7 172.4 59.5 172C58 171.5 53 166.5 50 164.5C47.6 162.9 43.6667 155.833 42 152.5C42.3333 152 43.2 150.6 44 149C45 147 47.5 146 53 144C58.5 142 58 144.5 59 146C60 147.5 62.5 161.5 63.5 166.5Z" fill="#FBCC51"/>
<path d="M113 224.5C114.6 226.9 114.667 229.167 114.5 230L108.5 231.5H98C95 231.5 80 236 74 238C69.2 239.6 58.6667 237.333 54 236C49.6667 233.333 40.7 227.9 39.5 227.5C38 227 22.5 214.5 17.5 208C13.5 202.8 11.8333 192.833 11.5 188.5L12.5 185L19.5 189L20.5 183L23.5 182L27 184.5H29L31 179.5H33L38 182L39.5 180.5C40 180 40 177 41 176.5C42 176 44 177 45 178C46 179 47 179 48 178.5C49 178 48 177.5 48.5 176C49 174.5 49 174 50 173C50.8 172.2 52 172.667 52.5 173C63 181.5 84.6 199 87 201C90 203.5 111 221.5 113 224.5Z" fill="#FBCC51"/>
<path d="M135 20.5C123 25.3 104 39.5 96 46L97 69.5C98.6667 69 103.8 67.5 111 65.5C118.2 63.5 127 62.6667 130.5 62.5C126.667 64.3333 118.5 68.3 116.5 69.5C114.5 70.7 103.667 83 98.5 89L99.5 97.5C101.5 95.5 107 90.5 113 86.5C120.5 81.5 131 78.5 137.5 77.5C144 76.5 181.5 76 188.5 75C194.1 74.2 204.5 70 209 68C212 65.5 219.1 59.6 223.5 56C227.9 52.4 230.667 41.5 231.5 36.5C225.333 39.3333 212.7 45.2 211.5 46C210 46.9999 196.5 49.5 190.5 50.5C185.7 51.3 158.5 51.8333 145.5 52C150.333 48.3333 161.2 40.1 166 36.5C172 32 185.5 25.5 190.5 23.5C194.5 21.9 205.167 19.1667 210 18C200 16.5 178.8 13.4 174 13C168 12.5 150 14.5 135 20.5Z" fill="#F5B2A3"/>
<path d="M117 167C115.833 162.667 114.4 148.1 114 136.5M108.5 161C107.833 156.333 106.6 144.2 107 133M98 152C97.5 147 97.2 134 100 122M89.001 141C89.3346 132 91.0017 112.5 95.001 106.5M83.001 122C83.8343 114.833 86.601 98.6 91.001 91M79.501 101C80.6676 93.5 84.601 76.5 91.001 68.5" stroke="#FCF6E7" stroke-width="2" stroke-linecap="round" stroke-linejoin="round"/>
<path d="M96 53.5C108.5 43.5 138.1 22.7 156.5 19.5C174.9 16.3 197.833 17.1667 207 18C192.833 18.8333 161.1 22.3 147.5 29.5C133.9 36.7 107.5 53.8333 96 61.5M98 69.5C122 57.5 155.7 30.3 180.5 27.5M129 63C132.5 61 140.7 54.8 145.5 52M124.5 66.5C140.5 65.1667 175.4 61.9 187 59.5C198.6 57.1 220.5 43.8333 230 37.5C225.667 44.3333 214 59 202 63C187 68 130 71.5 123 74.5C117.4 76.9 109 80.8333 105.5 82.5" stroke="#FAD8D1" stroke-width="2" stroke-linecap="round" stroke-linejoin="round"/>
<path d="M46.5 179.5C48 182.5 59.5 193 72.5 190.5M37 183C41.8333 187.833 53.1 197.9 59.5 199.5C65.9 201.1 78.5 200.167 84 199.5M27 186C33 192.667 47.5 206.6 57.5 209C67.5 211.4 85 209 92.5 207.5M19 190.5C23.8333 197 36.1 211.2 46.5 216C59.5 222 65 222.5 76 222C84.8 221.6 98.6667 217.833 104.5 216" stroke="#FCF6E7" stroke-width="2" stroke-linecap="round" stroke-linejoin="round"/>
<path d="M157.5 113.5C160.333 119.333 165.3 133.7 162.5 144.5C159 158 156 168 156 172M151 169.5C153 163 155.3 147.8 154.5 141C153.7 134.2 151 120.667 149 114.5M141 117C143 121.833 148 134.8 148 140C148 146.5 148 149 147 153.5C146.222 157 145.333 162.5 144.5 165.5M134 122.5C135.833 126.667 140 137.6 140 144C140 150.4 139.5 158 139.5 161.5M127.5 125C129.167 129.5 131.959 139.814 133 144.5C134 149 133.5 155.833 134 158.5" stroke="#FCF6E7" stroke-width="2" stroke-linecap="round" stroke-linejoin="round"/>
<path d="M107.224 232.032C111.204 234.974 120.99 242.09 128.292 247.022C135.594 251.955 164.941 253.109 178.702 253.07C178.388 258.099 176.657 268.631 172.245 270.526C166.73 272.894 158.925 272.484 152.279 279.518C160.05 274.979 174.21 276.684 178.962 273.39C182.763 270.754 188.446 258.727 190.813 253.043C194.112 253.019 203.006 251.454 212.186 245.38C223.662 237.787 224.2 223.343 223.402 217.467C223.137 215.519 222.446 214.092 221.44 212.961M107.224 232.032C103.764 231.358 94.5343 230.981 85.292 234.866C73.739 239.723 59.1745 238.661 51.6945 234.871C44.2145 231.081 15.5036 213.991 12.3443 195.438C9.18503 176.886 17.5412 189.288 19.1108 188.927C20.6804 188.567 18.8226 183.472 21.9746 182.211C24.9991 181 25.3116 184.749 28.0478 184.671C30.7839 184.594 29.5255 180.346 31.4991 179.5C34.9991 178 35.4992 183 37.9992 182C40.4991 181 38.8322 177.527 41.0927 176.718C44.4991 175.5 44.9758 179.724 46.9991 179C49.4758 178.114 47.9102 176.453 48.9991 174C50.0881 171.547 53.4092 172.788 54.9362 174.64C55.1495 174.899 56.4342 175.986 58.4901 177.68M107.224 232.032C113.502 230.59 115.312 231.276 114.11 226.044C113.077 221.543 71.1534 188.111 58.4901 177.68M58.4901 177.68C57.853 176.357 56.6007 172.936 56.6876 169.832M56.6876 169.832C49.5139 165.42 43.4483 155.798 42.2041 152.779C41.11 150.124 48.3269 144.708 53.8868 143.691M56.6876 169.832C62.4364 174.57 68.8573 175.299 65.4002 172.237C61.9431 169.176 61.6476 143.907 56.0551 143.539C55.3807 143.494 54.6493 143.551 53.8868 143.691M53.8868 143.691C54.3509 134.519 56.9478 113.37 63.6227 102.143C70.2976 90.9162 75.1339 85.9132 76.7177 84.815M76.7177 84.815C79.3553 76.3145 85.5414 58.0027 89.1843 52.7596C92.8271 47.5166 94.7375 39.3667 95.2373 35.9471C95.3458 38.9122 95.4867 42.4507 95.6551 46.3163M76.7177 84.815C78.1146 95.6938 81.8386 120.542 85.5596 132.907C90.2108 148.363 105.206 160.892 122.216 170.204C121.786 165.975 121.583 158.108 121.159 150.618M99.398 97.2316C101.681 107.172 115.863 128.15 118.634 133.022C120.044 135.501 120.72 142.857 121.159 150.618M99.398 97.2316C104.849 91.3898 120.16 79.2441 137.802 77.3956C159.854 75.0849 176.992 77.7585 194.257 73.7931C211.523 69.8278 229.807 53.5109 231.435 36.6133C210.782 47.4153 197.582 49.8962 188.97 50.7723C180.359 51.6485 151.187 51.7387 144.789 52.6575C166.575 37.1886 179.745 22.5972 210.692 18.2438C179.838 11.0092 156.379 11.9905 137.218 19.6959C121.89 25.8602 103.123 40.0113 95.6551 46.3163M99.398 97.2316C99.083 95.8597 98.7714 93.6466 98.4683 90.8356M121.159 150.618C123.571 152.177 126.36 153.966 129.392 155.895M212.387 207.88C206.837 205.299 205.996 201.636 203.345 197.288C200.694 192.939 189.714 188.301 180.905 185.918C178.108 185.161 170.797 181.174 161.933 175.954M212.387 207.88C216.096 209.604 219.411 210.682 221.44 212.961M212.387 207.88C214.563 205.911 218.948 201.305 219.076 198.632C219.236 195.291 217.114 194.126 212.202 190.296C207.29 186.467 208.066 181.883 207.585 179.79C207.105 177.697 207.833 173.674 213.068 172.472C209.125 174.479 211.05 175.689 212.252 180.921C213.453 186.153 224.795 192.361 226.923 196.83C228.626 200.405 223.977 209.073 221.44 212.961M161.933 175.954C161.758 171.772 162.457 161.734 166.651 155.042C171.893 146.678 169.507 121.889 164.563 114.762C162.821 112.252 160.999 110.5 158.499 111C156.601 111.38 157.057 114.076 154.999 114.762C153.499 115.262 152.113 112.4 149.499 113C146.886 113.6 149.112 117 145.999 117.5C142.605 118.045 142.999 115 139.999 116C136.999 117 139.075 119.789 136.307 121.252C132.999 123 132.615 119.899 129.999 120.5C127.383 121.101 125.15 132.627 125.666 139.669C126.078 145.302 128.322 152.834 129.392 155.895M161.933 175.954C151.632 169.888 139.236 162.157 129.392 155.895M95.6551 46.3163C95.9687 53.5156 96.3777 61.8493 96.8495 69.7262M96.8495 69.7262C102.82 67.6206 117.055 63.3232 126.229 62.9788C137.697 62.5482 125.543 64.7887 119.222 68.4436C112.901 72.0985 102.771 83.2379 98.4683 90.8356M96.8495 69.7262C97.3344 77.8206 97.8857 85.4326 98.4683 90.8356" stroke="#221F1C" stroke-width="3" stroke-linecap="round" stroke-linejoin="round"/>
<circle cx="173.932" cy="225.932" r="6.93206" fill="#221F1C"/>
<circle cx="172.942" cy="222.961" r="1.98059" fill="white"/>
<circle cx="176.909" cy="223.952" r="0.990294" fill="white"/>
</g>
<defs>
<clipPath id="clip0_190_5271">
<rect width="362" height="285" fill="white"/>
</clipPath>
</defs>
</svg>
