<svg xmlns="http://www.w3.org/2000/svg" fill="none" viewBox="0 0 54.81 62.593548387096774" style="max-height: 500px" width="54.81" height="62.593548387096774">
<path fill="#090A0B" d="M3.17346 1.2464C3.63378 0.786464 4.25811 0.528076 4.90909 0.528076H49.0909C49.7419 0.528076 50.3662 0.786464 50.8265 1.2464C51.2869 1.70633 51.5455 2.33013 51.5455 2.98058V10.3381C51.5455 10.9885 51.2869 11.6123 50.8265 12.0723C50.3662 12.5322 49.7419 12.7906 49.0909 12.7906H4.90909C4.25811 12.7906 3.63378 12.5322 3.17346 12.0723C2.71315 11.6123 2.45455 10.9885 2.45455 10.3381V2.98058C2.45455 2.33013 2.71315 1.70633 3.17346 1.2464Z"/>
<path fill="#090A0B" d="M6.13636 13.4037C6.81417 13.4037 7.36364 13.9527 7.36364 14.63C7.36364 16.6121 7.03165 18.1225 6.49578 19.3606C5.96276 20.5922 5.25495 21.4881 4.62057 22.2408C4.5248 22.3545 4.43223 22.4633 4.34279 22.5685L4.34119 22.5703C3.81633 23.1873 3.39862 23.6784 3.06889 24.2755C2.71069 24.9242 2.45455 25.7162 2.45455 26.8925V49.5781C2.45455 52.1799 3.48896 54.6751 5.33022 56.5148C7.17149 58.3545 9.66878 59.3881 12.2727 59.3881H41.7273C44.3312 59.3881 46.8285 58.3545 48.6698 56.5148C50.511 54.6751 51.5455 52.1799 51.5455 49.5781V26.8925C51.5455 25.7162 51.2893 24.9242 50.9311 24.2755C50.6014 23.6784 50.1839 23.1876 49.659 22.5706C49.569 22.4648 49.4759 22.3552 49.3794 22.2408C48.7451 21.4881 48.0372 20.5922 47.5042 19.3606C46.9683 18.1225 46.6364 16.6121 46.6364 14.63C46.6364 13.9527 47.1858 13.4037 47.8636 13.4037C48.5414 13.4037 49.0909 13.9527 49.0909 14.63C49.0909 16.3266 49.3726 17.4986 49.7571 18.3872C50.1446 19.2824 50.664 19.9576 51.2569 20.6611C51.3363 20.7553 51.4186 20.8516 51.503 20.9504L51.5037 20.9512L51.5041 20.9517C52.0239 21.5601 52.621 22.259 53.0803 23.0908C53.6425 24.109 54 25.3096 54 26.8925V49.5781C54 52.8303 52.707 55.9493 50.4054 58.249C48.1038 60.5486 44.9822 61.8406 41.7273 61.8406H12.2727C9.0178 61.8406 5.89618 60.5486 3.5946 58.249C1.29302 55.9493 0 52.8303 0 49.5781V26.8925C0 25.3096 0.357495 24.109 0.919746 23.0908C1.37903 22.259 1.97609 21.5601 2.49589 20.9517L2.49712 20.9503C2.58145 20.8515 2.66373 20.7552 2.74306 20.6611C3.33596 19.9576 3.85542 19.2824 4.24286 18.3872C4.62744 17.4986 4.90909 16.3266 4.90909 14.63C4.90909 13.9527 5.45856 13.4037 6.13636 13.4037Z"/>
<path fill="#090A0B" d="M4.5 28.6531C4.5 26.1678 6.51472 24.1531 9 24.1531H45C47.4853 24.1531 49.5 26.1678 49.5 28.6531V49.4656C49.5 53.8148 45.9742 57.3406 41.625 57.3406H12.375C8.02576 57.3406 4.5 53.8148 4.5 49.4656V28.6531Z"/>
<path fill="#090A0B" d="M174.022 49.4761V31.6921H178.054L177.91 36.3721H177.946C178.738 33.3121 180.898 31.4041 184.138 31.4041C187.594 31.4041 189.826 33.2041 190.258 36.0841H190.294C190.942 33.2041 193.102 31.4041 196.486 31.4041C200.446 31.4041 202.714 33.9601 202.714 38.1361V49.4761H198.682V39.0361C198.682 36.4441 197.422 34.8601 195.01 34.8601C192.202 34.8601 190.402 36.9481 190.402 40.6561V49.4761H186.37V38.9641C186.37 36.4441 185.038 34.8601 182.626 34.8601C179.89 34.8601 178.054 36.9841 178.054 40.8001V49.4761H174.022Z"/>
<path fill="#090A0B" d="M159.11 49.7641C155.042 49.7641 152.342 47.8201 152.342 44.3641C152.342 41.6641 154.25 39.5401 159.002 39.5401H165.59V38.2801C165.59 35.6161 164.042 34.4281 160.91 34.4281C158.174 34.4281 156.626 35.4721 156.626 37.4521C156.626 37.5601 156.626 37.8481 156.662 38.1361H152.954C152.918 37.8841 152.882 37.4161 152.882 37.0921C152.882 33.5281 155.978 31.4041 161.054 31.4041C166.454 31.4041 169.622 33.9601 169.622 38.6401V49.4761H165.59C165.662 48.6121 165.77 46.9921 165.77 45.5521H165.734C165.158 48.1801 163.034 49.7641 159.11 49.7641ZM159.938 46.7401C163.43 46.7401 165.59 45.0481 165.59 42.3121V41.9881H159.362C157.058 41.9881 156.05 42.7801 156.05 44.1841C156.05 45.8041 157.49 46.7401 159.938 46.7401Z"/>
<path fill="#090A0B" d="M143.975 29.604V25.644H148.151V29.604H143.975ZM141.815 57C140.195 57 138.935 56.748 138.431 56.604V53.4C139.115 53.544 139.979 53.652 140.807 53.652C143.075 53.652 144.047 52.248 144.047 49.836V31.692H148.079V49.98C148.079 54.156 146.063 57 141.815 57Z"/>
<path fill="#090A0B" d="M120.866 49.4761V24.5281H124.898V32.5921C124.898 33.4561 124.826 35.5081 124.79 36.4801H124.826C125.762 33.2401 128.066 31.4041 132.242 31.4041C136.742 31.4041 139.514 33.9601 139.514 38.3521V49.4761H135.482V39.2521C135.482 36.4441 133.898 34.8601 130.694 34.8601C127.13 34.8601 124.898 37.0561 124.898 41.0521V49.4761H120.866Z"/>
<path fill="#090A0B" d="M108.025 49.7641C101.905 49.7641 99.709 47.0281 99.709 43.5361H103.345C103.345 45.5881 104.533 46.8481 107.989 46.8481C111.265 46.8481 112.705 45.8401 112.705 44.2201C112.705 43.5361 112.453 42.9241 111.517 42.6001C110.653 42.2761 108.961 42.0961 106.981 41.9161C104.209 41.6641 102.337 41.3041 101.257 40.5121C100.285 39.7921 99.709 38.4961 99.709 37.1281C99.709 33.5641 103.165 31.4041 107.989 31.4041C113.533 31.4041 115.981 33.7081 115.981 37.7401H112.345C112.309 35.4361 111.049 34.3201 108.097 34.3201C105.289 34.3201 103.705 35.3281 103.705 36.8401C103.705 37.5961 103.885 38.3161 104.929 38.6761C105.793 38.9641 107.485 39.1441 109.645 39.3601C112.165 39.6121 113.605 39.8641 114.865 40.5841C116.053 41.2321 116.737 42.6001 116.737 44.0401C116.737 47.6401 113.713 49.7641 108.025 49.7641Z"/>
<path fill="currentColor" d="M91.4147 29.604V25.644H95.5547V29.604H91.4147ZM91.4507 49.476V31.692H95.4827V49.476H91.4507Z"/>
<path fill="currentColor" d="M72 49.4761V25.7881H87.84V29.3881H76.32V36.5881H86.04V39.6121H76.32V49.4761H72Z"/>
</svg>